TITLE ""
FILE "2Q_e_031-038.mp3" MP3
  TRACK 01 AUDIO
    TITLE "2Q_e_031-038_01"
    INDEX 01 00:00:00
  TRACK 02 AUDIO
    TITLE "2Q_e_031-038_02"
    INDEX 01 00:02:44
  TRACK 03 AUDIO
    TITLE "2Q_e_031-038_03"
    INDEX 01 00:03:15
  TRACK 04 AUDIO
    TITLE "2Q_e_031-038_04"
    INDEX 01 00:06:32
  TRACK 05 AUDIO
    TITLE "2Q_e_031-038_05"
    INDEX 01 00:07:06
  TRACK 06 AUDIO
    TITLE "2Q_e_031-038_06"
    INDEX 01 00:11:12
  TRACK 07 AUDIO
    TITLE "2Q_e_031-038_07"
    INDEX 01 00:11:57
  TRACK 08 AUDIO
    TITLE "2Q_e_031-038_08"
    INDEX 01 00:14:12
  TRACK 09 AUDIO
    TITLE "2Q_e_031-038_09"
    INDEX 01 00:14:59
  TRACK 10 AUDIO
    TITLE "2Q_e_031-038_10"
    INDEX 01 00:17:34
  TRACK 11 AUDIO
    TITLE "2Q_e_031-038_11"
    INDEX 01 00:18:02
  TRACK 12 AUDIO
    TITLE "2Q_e_031-038_12"
    INDEX 01 00:23:09
  TRACK 13 AUDIO
    TITLE "2Q_e_031-038_13"
    INDEX 01 00:23:58
  TRACK 14 AUDIO
    TITLE "2Q_e_031-038_14"
    INDEX 01 00:25:69
  TRACK 15 AUDIO
    TITLE "2Q_e_031-038_15"
    INDEX 01 00:26:39
  TRACK 16 AUDIO
    TITLE "2Q_e_031-038_16"
    INDEX 01 00:29:04
  TRACK 17 AUDIO
    TITLE "2Q_e_031-038_17"
    INDEX 01 00:29:49
  TRACK 18 AUDIO
    TITLE "2Q_e_031-038_18"
    INDEX 01 00:32:57
  TRACK 19 AUDIO
    TITLE "2Q_e_031-038_19"
    INDEX 01 00:33:29
  TRACK 20 AUDIO
    TITLE "2Q_e_031-038_20"
    INDEX 01 00:34:31
  TRACK 21 AUDIO
    TITLE "2Q_e_031-038_21"
    INDEX 01 00:35:01
  TRACK 22 AUDIO
    TITLE "2Q_e_031-038_22"
    INDEX 01 00:36:53
  TRACK 23 AUDIO
    TITLE "2Q_e_031-038_23"
    INDEX 01 00:37:25
  TRACK 24 AUDIO
    TITLE "2Q_e_031-038_24"
    INDEX 01 00:40:29
  TRACK 25 AUDIO
    TITLE "2Q_e_031-038_25"
    INDEX 01 00:40:73
  TRACK 26 AUDIO
    TITLE "2Q_e_031-038_26"
    INDEX 01 00:42:30
  TRACK 27 AUDIO
    TITLE "2Q_e_031-038_27"
    INDEX 01 00:42:75
  TRACK 28 AUDIO
    TITLE "2Q_e_031-038_28"
    INDEX 01 00:44:74
  TRACK 29 AUDIO
    TITLE "2Q_e_031-038_29"
    INDEX 01 00:45:44
  TRACK 30 AUDIO
    TITLE "2Q_e_031-038_30"
    INDEX 01 00:49:32
  TRACK 31 AUDIO
    TITLE "2Q_e_031-038_31"
    INDEX 01 00:50:02
  TRACK 32 AUDIO
    TITLE "2Q_e_031-038_32"
    INDEX 01 00:52:11
  TRACK 33 AUDIO
    TITLE "2Q_e_031-038_33"
    INDEX 01 00:52:58
  TRACK 34 AUDIO
    TITLE "2Q_e_031-038_34"
    INDEX 01 00:54:69
  TRACK 35 AUDIO
    TITLE "2Q_e_031-038_35"
    INDEX 01 00:55:39
  TRACK 36 AUDIO
    TITLE "2Q_e_031-038_36"
    INDEX 01 01:00:38
  TRACK 37 AUDIO
    TITLE "2Q_e_031-038_37"
    INDEX 01 01:01:16
  TRACK 38 AUDIO
    TITLE "2Q_e_031-038_38"
    INDEX 01 01:04:22
  TRACK 39 AUDIO
    TITLE "2Q_e_031-038_39"
    INDEX 01 01:04:69
  TRACK 40 AUDIO
    TITLE "2Q_e_031-038_40"
    INDEX 01 01:07:20
  TRACK 41 AUDIO
    TITLE "2Q_e_031-038_41"
    INDEX 01 01:07:69
  TRACK 42 AUDIO
    TITLE "2Q_e_031-038_42"
    INDEX 01 01:13:58
  TRACK 43 AUDIO
    TITLE "2Q_e_031-038_43"
    INDEX 01 01:14:30
  TRACK 44 AUDIO
    TITLE "2Q_e_031-038_44"
    INDEX 01 01:15:39
  TRACK 45 AUDIO
    TITLE "2Q_e_031-038_45"
    INDEX 01 01:16:10
  TRACK 46 AUDIO
    TITLE "2Q_e_031-038_46"
    INDEX 01 01:18:16
  TRACK 47 AUDIO
    TITLE "2Q_e_031-038_47"
    INDEX 01 01:18:61
  TRACK 48 AUDIO
    TITLE "2Q_e_031-038_48"
    INDEX 01 01:25:69
